<?xml version="1.0" standalone="no"?>
<!DOCTYPE svg PUBLIC "-//W3C//DTD SVG 20010904//EN"
 "http://www.w3.org/TR/2001/REC-SVG-20010904/DTD/svg10.dtd">
<svg version="1.0" xmlns="http://www.w3.org/2000/svg"
 width="480.000000pt" height="480.000000pt" viewBox="0 0 480.000000 480.000000"
 preserveAspectRatio="xMidYMid meet">
<metadata>
Created by potrace 1.14, written by Peter Selinger 2001-2017
</metadata>
<g transform="translate(0.000000,480.000000) scale(0.100000,-0.100000)"
fill="#000000" stroke="none">
<path d="M0 2439 l0 -2360 23 6 c12 3 152 71 312 151 160 79 281 137 270 128
-25 -20 -470 -242 -547 -274 -54 -22 -58 -26 -58 -57 l0 -33 1061 0 1061 0
-73 80 c-270 295 -638 744 -738 899 -30 47 -88 154 -129 239 l-74 154 40 86
c49 105 107 261 122 328 10 43 50 314 50 336 0 5 13 2 28 -6 15 -8 44 -17 63
-21 34 -6 37 -11 59 -73 45 -132 68 -158 360 -403 219 -184 341 -269 416 -292
27 -9 41 -16 31 -16 -10 -1 -17 -7 -15 -13 3 -7 67 -31 143 -52 76 -22 134
-41 128 -43 -6 -2 -29 0 -52 6 -95 21 -1 -59 111 -94 45 -14 133 -36 195 -48
62 -12 111 -26 109 -32 -6 -18 -83 -6 -283 45 -205 52 -223 56 -207 41 17 -17
177 -68 314 -101 74 -17 137 -34 139 -36 2 -2 -2 -11 -9 -19 -16 -19 -6 -20
-275 46 -200 49 -248 57 -229 40 13 -13 145 -53 321 -97 l152 -38 -20 -28
c-32 -44 -4 -33 34 15 51 63 103 143 219 337 103 173 107 177 275 345 93 94
198 207 232 253 35 46 64 82 66 80 2 -2 -8 -68 -21 -147 -48 -288 -94 -829
-94 -1102 0 -161 39 -474 69 -551 19 -50 29 -29 14 29 -17 65 -52 327 -43 316
4 -5 35 -45 68 -90 34 -44 73 -90 87 -101 29 -23 36 -40 65 -174 l22 -98 504
0 504 0 0 2400 0 2400 -352 -1 c-277 0 -349 -3 -334 -12 47 -30 126 -91 122
-94 -2 -2 -29 3 -61 12 -68 20 -83 14 -23 -8 80 -30 170 -48 244 -50 41 -1 74
-5 74 -8 0 -24 -146 -178 -210 -222 -31 -21 -29 -23 109 -107 95 -58 102 -64
80 -72 -29 -11 -186 -6 -213 6 -17 9 -17 8 -1 -25 53 -105 182 -224 257 -235
l39 -7 -48 -49 c-50 -51 -151 -98 -240 -113 -54 -9 -54 -24 -2 -69 53 -45 94
-64 160 -74 l54 -8 -55 -32 c-72 -41 -109 -48 -151 -27 l-34 16 25 -20 25 -21
-42 0 c-24 0 -43 -4 -43 -9 0 -16 43 -105 75 -156 35 -54 92 -109 131 -127 33
-15 30 -23 -15 -36 -54 -17 -83 -15 -143 8 -28 11 -54 18 -56 16 -2 -2 12 -10
32 -17 19 -7 33 -16 30 -20 -4 -8 -29 -6 -91 7 -19 4 -22 0 -20 -25 1 -16 5
-28 8 -26 3 2 22 -30 42 -71 20 -41 35 -74 32 -74 -3 0 -20 30 -39 68 -37 73
-39 72 -55 -22 -12 -68 -7 -76 69 -100 25 -8 36 -15 24 -15 -30 -1 -113 44
-154 85 -38 36 -59 41 -89 22 -15 -9 -27 -8 -56 3 l-37 14 -2 80 c-2 73 -6 86
-40 145 -21 36 -48 79 -61 96 -15 20 -20 35 -15 44 5 9 3 24 -7 40 -14 24 -14
38 1 146 23 175 36 358 36 519 l0 143 -32 12 c-28 11 -30 14 -13 17 33 8 42
23 22 38 -18 13 -18 14 -1 23 16 9 13 12 -21 27 -137 57 -611 145 -784 145
l-68 0 -63 56 c-34 30 -64 54 -66 51 -2 -2 45 -53 104 -113 59 -61 116 -126
127 -145 l19 -34 -54 46 c-114 96 -234 161 -293 158 -17 -1 -18 -2 -4 -6 19
-5 22 -19 6 -29 -6 -3 -15 0 -20 7 -7 11 -13 9 -28 -11 l-19 -24 -13 27 c-15
34 -29 35 -29 2 0 -25 -14 -33 -25 -15 -3 5 -15 15 -27 21 -19 10 -20 9 -14
-16 7 -26 6 -27 -26 -20 -18 4 -38 11 -44 16 -13 11 -106 -61 -206 -160 -43
-41 -78 -71 -78 -64 0 20 117 187 189 271 80 91 78 112 -2 28 -29 -29 -86 -73
-127 -96 -41 -24 -86 -50 -100 -58 -14 -8 15 25 64 72 100 97 112 126 18 42
-40 -35 -73 -57 -94 -60 -124 -19 -245 -41 -318 -58 -223 -51 -480 -137 -480
-159 0 -5 19 -9 43 -9 l42 -1 -34 -17 c-38 -19 -39 -39 -1 -34 l25 4 -22 -24
c-22 -23 -22 -25 -13 -198 6 -96 17 -254 25 -350 13 -153 13 -177 0 -197 -8
-12 -15 -35 -15 -51 0 -29 -95 -199 -109 -195 -14 3 -19 -97 -9 -184 l8 -62
-31 -6 c-24 -5 -45 0 -85 20 -87 44 -125 21 -143 -85 -5 -30 -9 -47 -10 -36
-1 12 -6 16 -16 12 -10 -4 -15 1 -16 17 0 16 -5 12 -19 -19 -10 -23 -24 -45
-32 -50 -9 -6 -8 -1 3 16 9 14 22 42 29 64 9 29 15 35 22 25 8 -11 8 -10 4 4
-3 10 -6 25 -6 33 0 12 -5 12 -31 -1 -16 -9 -53 -18 -82 -20 l-52 -4 55 10
c30 5 62 16 70 25 13 13 13 14 0 9 -33 -12 -48 134 -18 172 5 7 5 14 -2 18 -6
3 -8 11 -5 16 4 5 2 9 -2 9 -5 0 -23 -30 -41 -67 -17 -38 -38 -77 -46 -88 -9
-11 2 17 24 61 22 45 43 95 46 112 l6 31 -62 -25 c-34 -14 -64 -23 -67 -21 -2
3 17 12 44 21 26 9 58 24 70 34 l22 17 -29 57 -28 56 20 19 c11 10 29 32 40
48 14 21 8 18 -21 -13 -22 -24 -54 -69 -71 -100 -17 -31 -50 -78 -74 -104 -33
-37 -39 -48 -27 -51 9 -3 3 -5 -12 -6 -28 -1 -28 0 23 52 63 64 118 171 126
249 l7 57 -48 -15 c-48 -14 -184 -17 -239 -5 -29 6 -29 6 24 31 84 39 166 152
204 279 9 30 14 57 11 59 -3 3 -22 -2 -42 -11 -21 -9 -58 -19 -83 -23 l-45 -7
52 41 c48 38 123 146 123 175 0 7 -32 22 -72 35 -39 12 -100 39 -135 58 l-64
36 63 22 c148 52 233 117 293 223 14 25 25 48 25 51 0 9 -115 -7 -159 -23 -24
-8 -47 -13 -50 -9 -7 7 62 68 156 135 l71 52 -97 48 c-134 65 -141 77 -48 72
39 -3 83 0 97 5 18 8 -102 11 -407 11 l-433 1 0 -2361z m2778 2102 c70 -36
205 -143 251 -200 18 -23 35 -40 38 -37 8 8 -70 135 -122 200 l-46 56 73 0
c129 0 510 -65 688 -117 53 -16 54 -16 28 -25 -33 -12 -36 -25 -6 -30 30 -4
34 -24 6 -31 -27 -8 -19 -17 35 -38 l42 -17 4 -73 c4 -92 -15 -373 -37 -539
-24 -186 -22 -208 39 -302 67 -106 79 -136 79 -209 0 -72 -17 -76 -35 -8 -15
58 -51 114 -112 171 -84 78 -185 116 -333 127 l-85 6 -9 153 c-4 84 -11 151
-14 148 -3 -3 -4 -66 -3 -140 1 -78 -2 -143 -8 -154 -6 -12 -26 -22 -52 -26
-174 -28 -339 -139 -401 -271 -29 -64 -41 -75 -53 -55 -11 18 -25 10 -25 -14
0 -14 10 -32 22 -40 12 -9 20 -18 17 -20 -2 -2 -60 -8 -128 -12 -134 -8 -149
-3 -128 43 14 31 -5 53 -32 36 -15 -10 -23 -4 -57 43 -63 88 -203 170 -340
200 -59 13 -125 17 -262 16 -181 0 -183 -1 -246 -30 -34 -16 -77 -45 -94 -63
-37 -40 -86 -135 -102 -199 -10 -42 -15 -47 -65 -67 -64 -25 -60 -29 -70 88
l-7 77 62 108 c34 60 68 116 74 124 15 19 14 101 -7 380 -15 197 -22 348 -18
392 0 10 19 27 41 38 48 25 51 40 8 40 l-33 1 33 14 c43 19 41 35 -5 35 -27 1
-33 3 -23 9 28 17 265 90 370 116 128 30 341 67 348 60 3 -3 -6 -18 -19 -33
-34 -37 -109 -137 -109 -145 0 -4 19 13 43 36 64 65 263 202 241 166 -5 -8
-25 -39 -45 -69 -55 -84 -110 -200 -94 -200 2 0 46 42 97 93 52 50 119 111
150 135 55 42 56 42 102 32 48 -10 71 -6 61 11 -10 15 12 10 26 -7 12 -14 14
-14 25 1 11 15 13 15 22 -2 9 -14 13 -16 23 -5 7 6 20 12 29 12 9 0 25 9 35
20 24 27 45 25 113 -9z m674 -1096 c160 -33 284 -124 327 -241 25 -66 28 -168
6 -240 -33 -113 -158 -234 -303 -294 -77 -33 -178 -45 -176 -22 1 6 2 76 3
155 l1 143 56 17 c74 23 208 117 166 117 -5 0 -48 -13 -97 -30 -109 -37 -138
-39 -133 -8 2 16 15 25 51 35 61 18 60 27 -3 19 l-50 -7 3 133 2 133 54 27
c36 19 63 26 80 22 45 -10 135 -47 155 -63 16 -14 18 -14 14 -1 -6 20 -78 59
-139 75 -43 12 -57 11 -91 -1 -23 -8 -47 -19 -55 -26 -17 -14 -21 -9 -29 29
-5 25 -2 32 12 36 36 9 73 7 146 -8z m-202 -49 c0 -53 0 -54 -47 -84 -123 -78
-362 -192 -402 -192 -6 0 -6 12 1 33 43 123 186 235 354 276 44 11 82 20 87
20 4 1 7 -23 7 -53z m-1245 -37 c145 -20 274 -75 357 -154 28 -27 68 -82 68
-95 0 -3 -18 -4 -40 -2 -34 4 -44 0 -61 -22 -13 -16 -30 -26 -47 -26 l-26 0
23 -21 c16 -15 21 -28 17 -45 -4 -13 -9 -44 -13 -69 -3 -25 -12 -50 -19 -56
-20 -16 -17 -80 5 -139 l19 -50 -45 -35 c-124 -94 -347 -126 -558 -78 -162 36
-194 67 -241 234 -37 133 -37 129 -8 309 22 135 35 157 119 202 39 21 78 38
88 38 10 0 56 -23 103 -50 106 -63 189 -105 279 -141 84 -35 87 -35 83 -7 -2
16 -13 25 -38 32 -117 31 -188 59 -280 111 -94 53 -102 60 -80 66 39 11 211
10 295 -2z m1240 -161 c-4 -66 -12 -116 -18 -121 -11 -7 -111 -2 -169 9 l-28
6 41 56 c33 47 159 162 177 162 2 0 1 -51 -3 -112z m-750 -97 c-3 -6 -14 -11
-23 -11 -15 1 -15 2 2 15 21 16 32 13 21 -4z m1421 -39 c13 -7 13 -10 1 -20
-11 -9 -22 -9 -50 3 -39 16 -52 30 -42 45 6 9 47 -4 91 -28z m116 -12 c28 -39
42 -179 34 -370 -7 -188 -11 -210 -37 -210 -20 0 -28 -24 -27 -77 1 -31 -16
-63 -33 -63 -5 0 -9 6 -9 14 0 7 -7 19 -15 26 -12 10 -16 8 -25 -15 -5 -14 -7
-43 -4 -63 4 -29 1 -43 -16 -65 -25 -32 -40 -35 -40 -8 0 10 -7 24 -16 32 -21
17 -34 -3 -34 -52 0 -42 -18 -62 -53 -57 l-24 3 19 55 c11 30 22 67 25 82 3
15 14 30 24 33 33 11 126 125 163 199 55 111 46 177 -20 148 -38 -18 -31 12
10 37 58 36 88 130 67 208 -13 47 -22 56 -46 47 -41 -16 -75 -137 -75 -272 0
-83 -2 -90 -30 -122 l-30 -35 5 40 c46 386 55 425 113 488 31 32 48 32 74 -3z
m-869 4 c67 -6 77 -9 77 -26 0 -17 -5 -19 -37 -14 -21 3 -76 11 -123 17 -47 6
-87 13 -90 15 -11 12 28 24 60 20 19 -3 70 -8 113 -12z m-2431 -41 c-11 -16
-30 -37 -43 -48 -12 -11 -5 1 16 28 43 52 57 63 27 20z m3088 -163 c-7 -52
-25 -167 -41 -255 -30 -169 -34 -215 -20 -231 5 -5 2 -37 -6 -74 -54 -239
-140 -379 -398 -649 -89 -93 -265 -248 -323 -284 -56 -36 -137 -47 -332 -47
-266 0 -378 13 -469 56 -172 80 -610 438 -691 564 -34 53 -75 172 -94 269 -11
60 -11 71 1 75 8 3 11 10 8 16 -4 6 -11 8 -16 4 -5 -3 -17 0 -25 7 -12 10 -13
15 0 33 12 20 9 36 -31 161 -44 141 -113 390 -113 411 0 6 18 16 40 22 l40 10
0 -42 c1 -134 114 -277 257 -327 289 -99 612 -30 763 165 19 25 42 48 51 51
31 11 51 44 58 97 5 48 8 53 33 56 22 3 28 -1 32 -20 34 -160 43 -371 23 -543
-14 -126 -14 -131 5 -157 27 -38 52 -38 36 0 -7 18 -10 103 -9 252 2 207 -13
407 -34 461 -5 14 5 18 67 23 102 10 128 2 128 -38 1 -44 13 -61 111 -152 65
-61 99 -85 145 -102 58 -21 179 -48 239 -54 30 -3 30 -4 35 -73 l4 -70 6 70 5
70 44 7 c181 31 371 161 435 300 14 29 29 71 33 93 l8 40 3 -50 c2 -27 -2 -93
-8 -145z m-1060 150 l0 -30 -92 0 c-51 0 -117 -3 -146 -7 -52 -6 -54 -5 -50
18 4 32 63 47 191 48 l97 1 0 -30z m1120 12 c0 -5 -7 -59 -15 -122 -8 -63 -24
-199 -35 -303 -11 -104 -23 -193 -26 -198 -7 -12 -31 -12 -38 0 -4 5 1 44 9
87 29 153 64 380 71 462 5 59 10 82 20 82 8 0 14 -4 14 -8z m-2757 -44 c50
-32 77 -71 77 -110 0 -27 52 -232 75 -297 19 -54 19 -54 -2 -42 -51 28 -57 38
-59 102 -3 68 -42 158 -110 252 -38 52 -57 58 -75 25 -13 -24 -18 -152 -7
-163 15 -16 28 9 29 58 0 29 4 61 8 72 7 17 11 15 33 -21 38 -59 90 -165 85
-171 -9 -8 -51 25 -72 57 -17 26 -45 41 -45 24 0 -19 66 -93 96 -107 41 -20
44 -37 6 -37 -16 0 -36 -6 -47 -13 -25 -19 -16 -80 24 -161 40 -82 75 -114
147 -132 76 -20 98 -34 111 -75 6 -19 18 -52 28 -73 l16 -39 -32 7 c-97 19
-261 185 -345 348 -65 127 -96 327 -69 443 24 107 35 111 128 53z m223 7 c-3
-8 -13 -14 -23 -14 -17 1 -17 2 0 6 9 2 17 14 18 26 0 12 3 16 6 9 3 -7 2 -19
-1 -27z m2914 4 c0 -5 -8 -9 -17 -8 -12 0 -13 2 -5 6 10 4 10 8 0 21 -12 15
-11 16 5 3 9 -7 17 -17 17 -22z m-2960 6 c-46 -18 -64 -17 -25 0 17 8 37 14
45 14 8 0 -1 -7 -20 -14z m1792 -9 c57 -14 114 -26 128 -28 22 -3 26 -10 37
-68 6 -36 15 -107 19 -157 l7 -93 -35 0 c-55 0 -136 17 -218 47 -59 21 -86 38
-123 76 -34 35 -45 53 -38 60 6 6 11 30 11 54 0 24 3 43 6 43 3 0 31 -7 61
-16 30 -9 57 -14 59 -11 3 3 -2 19 -10 36 -9 17 -21 42 -26 56 -12 32 -10 32
122 1z m-1865 -13 c-11 -3 -16 -11 -13 -19 7 -18 -2 -18 -20 0 -12 13 -12 15
4 19 9 3 24 5 32 5 9 0 7 -2 -3 -5z m70 -9 c-3 -3 -12 -4 -19 -1 -8 3 -5 6 6
6 11 1 17 -2 13 -5z m-40 -10 c-3 -3 -12 -4 -19 -1 -8 3 -5 6 6 6 11 1 17 -2
13 -5z m1582 -20 c23 -30 30 -98 9 -92 -28 9 -64 118 -39 118 5 0 19 -12 30
-26z m1315 -113 c12 -18 -6 -12 -31 11 -19 17 -23 32 -23 77 l0 56 24 -66 c13
-36 26 -71 30 -78z m-154 48 c0 -76 -17 -121 -51 -140 -11 -6 -22 -9 -23 -7
-6 7 25 160 39 194 21 51 35 33 35 -47z m-2767 31 c-3 -11 -7 -20 -9 -20 -2 0
-4 9 -4 20 0 11 4 20 9 20 5 0 7 -9 4 -20z m1568 -22 c11 -21 11 -22 -4 -9
-10 7 -17 17 -17 22 0 15 9 10 21 -13z m-1556 -28 c-3 -11 -2 -20 3 -20 6 0 7
-10 4 -22 -6 -23 -6 -23 -13 2 -11 38 -10 60 2 60 6 0 8 -9 4 -20z m-315 0
c-8 -5 -22 -9 -30 -9 -10 0 -8 3 5 9 27 12 43 12 25 0z m-53 -16 c-3 -3 -12
-4 -19 -1 -8 3 -5 6 6 6 11 1 17 -2 13 -5z m387 -61 c-4 -23 -3 -25 6 -13 10
13 11 12 6 -3 -3 -10 -6 -24 -7 -30 0 -7 -5 -1 -10 12 -5 13 -7 32 -4 42 10
29 16 22 9 -8z m-321 -50 c-7 -2 -19 -2 -25 0 -7 3 -2 5 12 5 14 0 19 -2 13
-5z m341 -20 c-4 -23 -3 -25 6 -13 9 12 10 11 5 -7 -8 -30 5 -79 17 -61 5 8 6
2 2 -17 -4 -21 -3 -26 4 -16 8 11 13 5 22 -28 6 -23 13 -50 16 -59 2 -9 -2 -3
-10 13 -20 39 -21 8 -1 -36 11 -26 15 -29 16 -14 0 11 9 -5 19 -35 17 -53 17
-76 1 -65 -20 12 -114 325 -105 348 10 26 15 20 8 -10z m2694 -86 c-9 -75
-137 -267 -178 -267 -9 0 -6 8 9 24 13 13 25 44 30 73 5 34 20 67 44 101 20
27 37 54 37 59 0 17 31 53 47 53 13 0 15 -9 11 -43z m-2782 -62 c9 -13 38 -38
64 -54 41 -25 51 -38 65 -83 10 -29 20 -59 23 -65 10 -29 -96 -6 -134 29 -22
19 -68 113 -84 169 -8 27 -7 29 20 29 20 0 35 -8 46 -25z m2846 -150 c5 -43
-9 -32 -18 14 -5 23 -4 32 3 28 6 -4 13 -23 15 -42z m-82 -147 c0 -47 -7 -78
-19 -78 -3 0 -7 42 -8 93 -1 85 0 90 12 62 8 -16 14 -51 15 -77z m86 55 c-10
-10 -19 5 -10 18 6 11 8 11 12 0 2 -7 1 -15 -2 -18z m-198 -154 c-4 -53 -12
-80 -21 -68 -2 2 -2 40 1 83 3 60 7 75 14 62 6 -10 8 -45 6 -77z m227 21 c14
-109 33 -366 27 -372 -4 -4 -23 -3 -42 1 -28 5 -36 13 -41 36 -13 59 -9 162
11 275 11 63 20 120 20 125 1 25 19 -24 25 -65z m-2805 -4 c0 -3 -4 -8 -10
-11 -5 -3 -10 -1 -10 4 0 6 5 11 10 11 6 0 10 -2 10 -4z m2699 -111 c5 -38 19
-131 30 -205 11 -74 21 -152 21 -172 0 -43 -10 -47 -66 -23 l-34 14 5 113 c4
62 11 163 16 223 5 61 9 117 10 125 1 25 8 -1 18 -75z m-168 -185 c-6 -36 -16
-112 -21 -170 -13 -122 -21 -135 -71 -119 -18 7 -37 15 -42 19 -8 7 56 200
106 320 29 67 32 72 36 45 1 -16 -2 -59 -8 -95z m-1407 -578 c2 -4 -11 -6 -30
-4 -19 2 -34 6 -34 8 0 8 59 4 64 -4z m652 -9 c-7 -7 -98 -5 -105 3 -2 2 22 4
54 4 32 0 55 -3 51 -7z m-308 -24 c40 -5 106 -10 145 -10 40 -1 86 -5 102 -9
37 -10 -168 -3 -315 11 -140 13 -206 30 -90 23 47 -3 118 -10 158 -15z m-25
-46 c-7 -2 -19 -2 -25 0 -7 3 -2 5 12 5 14 0 19 -2 13 -5z m75 -10 c-10 -2
-26 -2 -35 0 -10 3 -2 5 17 5 19 0 27 -2 18 -5z m-195 -10 c-7 -2 -21 -2 -30
0 -10 3 -4 5 12 5 17 0 24 -2 18 -5z m344 0 c-20 -2 -52 -2 -70 0 -17 2 0 4
38 4 39 0 53 -2 32 -4z m-294 -10 c-7 -2 -19 -2 -25 0 -7 3 -2 5 12 5 14 0 19
-2 13 -5z m326 -30 c3 -2 0 -8 -6 -14 -8 -8 -43 -5 -124 9 l-114 20 120 -5
c66 -3 122 -7 124 -10z m-175 -33 c131 -20 145 -24 132 -37 -7 -7 -221 32
-261 48 -31 12 -10 10 129 -11z"/>
<path d="M3597 4118 c-4 -18 -9 -92 -13 -163 -7 -137 0 -171 40 -204 22 -18
20 -5 -3 27 -30 43 -33 82 -21 227 12 128 10 187 -3 113z"/>
<path d="M1487 3907 c5 -132 4 -146 -16 -184 -23 -46 -25 -53 -13 -53 4 0 20
20 35 45 28 44 28 45 22 167 -7 137 -11 168 -24 168 -5 0 -7 -64 -4 -143z"/>
<path d="M3600 3701 c11 -22 30 -37 30 -24 -1 11 -26 43 -34 43 -4 0 -2 -9 4
-19z"/>
<path d="M1495 3679 c-23 -44 -12 -60 13 -19 24 39 27 50 12 50 -5 0 -17 -14
-25 -31z"/>
<path d="M1560 3076 c0 -14 111 -57 137 -54 23 2 17 7 -37 26 -98 34 -100 35
-100 28z"/>
<path d="M2106 3050 c-16 -5 -80 -15 -142 -21 -63 -7 -114 -17 -114 -21 0 -13
98 -9 189 7 101 18 121 23 121 36 0 11 -14 10 -54 -1z"/>
<path d="M1570 2999 c0 -12 114 -87 168 -111 57 -25 142 -27 232 -3 124 32
229 67 241 81 16 19 8 18 -114 -8 -72 -16 -135 -22 -217 -22 -106 1 -123 3
-212 36 -54 19 -98 31 -98 27z"/>
<path d="M2730 2235 c-20 -24 -6 -28 15 -5 10 11 13 20 8 20 -6 0 -16 -7 -23
-15z"/>
<path d="M3170 2043 c-53 -23 -202 -53 -334 -69 -132 -15 -174 -30 -56 -20
156 14 402 64 424 86 17 17 2 18 -34 3z"/>
<path d="M2100 1986 c0 -4 17 -14 38 -23 44 -18 341 -30 412 -15 33 7 -7 9
-155 9 -181 1 -221 5 -277 28 -10 4 -18 4 -18 1z"/>
<path d="M2380 1802 c0 -5 30 -16 68 -23 87 -18 436 -19 453 -2 9 9 -18 10
-117 6 -119 -5 -351 9 -388 23 -9 3 -16 2 -16 -4z"/>
<path d="M4110 2855 c0 -8 4 -15 10 -15 5 0 7 7 4 15 -4 8 -8 15 -10 15 -2 0
-4 -7 -4 -15z"/>
<path d="M1361 2430 c0 -8 4 -24 9 -35 5 -13 9 -14 9 -5 0 8 -4 24 -9 35 -5
13 -9 14 -9 5z"/>
<path d="M1710 4796 c0 -9 132 -77 143 -73 13 4 -107 77 -129 77 -7 0 -14 -2
-14 -4z"/>
<path d="M1864 4790 c15 -5 53 -12 85 -15 53 -6 55 -5 31 9 -15 9 -48 15 -85
15 -49 -1 -55 -2 -31 -9z"/>
<path d="M2210 4793 c0 -5 19 -24 43 -43 l42 -34 -35 41 c-34 40 -50 51 -50
36z"/>
<path d="M2408 4793 c7 -3 16 -2 19 1 4 3 -2 6 -13 5 -11 0 -14 -3 -6 -6z"/>
<path d="M2865 4776 c-44 -36 -26 -40 25 -6 33 22 39 30 25 30 -11 0 -33 -11
-50 -24z"/>
<path d="M3027 4789 c8 -8 16 -8 30 0 16 9 14 10 -11 11 -22 0 -27 -3 -19 -11z"/>
<path d="M3225 4790 c4 -6 11 -8 16 -5 14 9 11 15 -7 15 -8 0 -12 -5 -9 -10z"/>
<path d="M3390 4723 c-61 -12 -31 -19 84 -18 82 0 119 3 108 9 -19 11 -154 17
-192 9z"/>
<path d="M3485 4675 c-5 -2 -22 -6 -37 -9 -16 -4 -28 -10 -28 -15 0 -5 16 -5
38 0 20 5 60 9 87 9 36 0 46 3 35 10 -14 9 -73 12 -95 5z"/>
<path d="M2213 4663 c9 -2 23 -2 30 0 6 3 -1 5 -18 5 -16 0 -22 -2 -12 -5z"/>
<path d="M3865 4648 c-22 -12 -35 -23 -28 -25 11 -4 93 33 93 42 0 10 -27 3
-65 -17z"/>
<path d="M1223 4623 c-13 -2 -23 -8 -23 -12 0 -8 100 6 109 15 5 5 -56 3 -86
-3z"/>
<path d="M1640 4620 c-10 -7 6 -10 55 -10 49 0 65 3 55 10 -8 5 -33 10 -55 10
-22 0 -47 -5 -55 -10z"/>
<path d="M3770 4572 c0 -15 26 -22 78 -21 79 1 97 17 20 18 -36 1 -73 4 -82 7
-9 3 -16 2 -16 -4z"/>
<path d="M1208 4551 c-80 -26 -92 -31 -86 -37 8 -7 158 38 158 48 0 11 -6 10
-72 -11z"/>
<path d="M1061 4404 c-63 -30 -112 -56 -109 -59 3 -3 48 15 101 40 53 25 101
45 106 45 5 0 14 7 21 15 19 23 4 18 -119 -41z"/>
<path d="M3954 4056 c24 -30 52 -68 62 -85 10 -17 22 -31 27 -31 9 0 6 6 -36
70 -35 52 -77 100 -89 100 -5 0 12 -24 36 -54z"/>
<path d="M1018 4021 c-31 -25 -55 -48 -52 -50 5 -5 78 45 100 70 32 36 9 26
-48 -20z"/>
<path d="M3901 4035 c0 -14 68 -90 74 -83 3 3 -13 25 -34 49 -22 24 -40 40
-40 34z"/>
<path d="M990 3915 c-36 -36 -60 -65 -54 -65 13 0 129 118 123 124 -3 3 -34
-24 -69 -59z"/>
<path d="M3930 3911 c0 -4 11 -18 25 -31 26 -25 32 -21 15 9 -10 20 -40 36
-40 22z"/>
<path d="M943 3723 c-49 -65 -93 -124 -97 -132 -14 -22 32 -3 97 41 32 22 60
38 62 36 3 -2 -2 -26 -10 -53 -8 -26 -15 -55 -15 -64 0 -30 17 5 38 81 12 42
25 84 29 94 3 9 -28 -11 -70 -46 -43 -35 -79 -61 -81 -59 -3 2 29 49 70 103
67 90 83 116 70 116 -3 0 -45 -53 -93 -117z"/>
<path d="M3900 3823 c0 -5 9 -18 20 -28 11 -10 20 -14 20 -8 0 5 -9 18 -20 28
-11 10 -20 14 -20 8z"/>
<path d="M1109 3623 l-24 -28 28 24 c25 23 32 31 24 31 -2 0 -14 -12 -28 -27z"/>
<path d="M1034 3548 c-21 -22 -33 -37 -25 -33 11 6 13 4 7 -11 -19 -45 -19
-56 -1 -53 11 3 26 27 41 69 13 35 22 65 20 67 -1 1 -20 -16 -42 -39z"/>
<path d="M919 3563 c-13 -16 -12 -17 4 -4 9 7 17 15 17 17 0 8 -8 3 -21 -13z"/>
<path d="M4011 3565 c-1 -14 37 -61 43 -54 3 2 -6 18 -19 34 -13 17 -24 26
-24 20z"/>
<path d="M1189 3513 l-24 -28 28 24 c25 23 32 31 24 31 -2 0 -14 -12 -28 -27z"/>
<path d="M1052 3463 c-25 -50 -35 -93 -22 -93 10 0 38 55 54 108 12 36 -12 26
-32 -15z"/>
<path d="M1125 3235 c-40 -64 -46 -88 -12 -57 13 12 26 20 29 16 3 -3 9 0 14
7 4 8 3 10 -4 5 -17 -10 -15 -1 8 36 22 37 25 48 10 48 -5 0 -25 -25 -45 -55z"/>
<path d="M997 3215 c-16 -14 -34 -22 -40 -19 -7 4 -9 4 -5 -1 4 -4 -1 -18 -11
-31 -11 -14 -17 -33 -14 -44 4 -16 9 -18 27 -8 37 19 56 41 51 58 -3 9 3 25
15 35 20 18 26 35 13 35 -5 0 -21 -12 -36 -25z"/>
</g>
</svg>
