<svg id="svg" version="1.1" xmlns="http://www.w3.org/2000/svg" xmlns:xlink="http://www.w3.org/1999/xlink" width="400" height="400" viewBox="0, 0, 400,400"><g id="svgg"><path id="path0" d="M209.125 10.210 C 207.437 10.961,205.687 12.499,196.553 21.257 C 189.291 28.220,187.767 29.504,185.127 30.877 C 176.371 35.432,176.531 35.880,192.683 51.963 C 210.052 69.259,210.581 69.286,226.927 53.691 C 232.366 48.502,234.610 46.638,238.848 43.791 C 244.605 39.924,244.132 39.000,228.435 23.443 C 214.178 9.314,212.981 8.493,209.125 10.210 M262.241 48.624 C 261.618 49.148,260.412 50.839,259.561 52.382 C 256.660 57.636,253.243 61.277,240.021 73.200 C 237.759 75.240,233.983 78.669,231.629 80.819 C 215.028 95.987,192.778 105.798,175.056 105.766 C 160.603 105.739,139.804 98.570,124.777 88.435 C 116.574 82.902,115.248 82.460,113.149 84.559 C 107.135 90.573,127.907 110.405,153.978 123.539 C 165.693 129.441,181.437 131.048,204.097 128.656 C 215.826 127.418,222.794 125.430,238.136 118.947 C 256.709 111.099,266.653 105.277,287.196 90.222 C 301.402 79.812,301.503 79.104,290.251 68.837 C 265.572 46.317,265.255 46.088,262.241 48.624 M259.886 127.182 C 248.789 130.002,238.283 140.987,235.527 152.651 C 233.059 163.096,231.751 162.966,217.505 150.852 C 203.912 139.294,203.168 139.132,197.297 146.430 C 188.656 157.174,185.272 158.357,170.950 155.641 C 158.826 153.343,150.440 154.501,136.819 160.354 C 128.027 164.132,126.055 164.611,117.877 164.953 C 109.440 165.306,108.003 166.011,108.011 169.790 C 108.020 173.787,109.973 176.426,122.764 189.717 C 138.676 206.252,139.322 202.777,116.222 224.930 C 98.867 241.573,98.145 242.389,98.186 245.334 C 98.223 247.931,99.625 249.370,112.902 260.447 C 131.711 276.140,130.631 275.934,141.698 265.943 C 150.165 258.299,152.109 257.635,154.190 261.672 C 154.934 263.116,154.998 285.084,154.271 289.385 C 152.679 298.798,147.194 306.606,132.896 319.816 C 122.000 329.882,112.502 330.415,107.972 321.213 C 104.884 314.940,106.200 310.565,114.355 300.002 C 121.730 290.448,122.008 290.992,100.745 273.365 C 82.551 258.282,82.299 258.193,77.449 265.149 C 76.652 266.291,74.657 268.978,73.015 271.120 C 66.696 279.364,64.548 286.623,65.556 296.337 C 66.794 308.277,72.634 315.481,96.462 334.457 C 122.690 355.346,130.366 358.880,146.620 357.552 C 163.388 356.182,172.416 350.953,182.759 336.621 C 188.451 328.733,191.089 327.531,196.915 330.167 C 201.390 332.192,203.871 335.699,205.597 342.438 C 209.285 356.839,220.388 362.816,272.363 378.379 C 304.359 387.960,307.243 388.474,309.661 385.022 C 311.567 382.300,309.463 379.671,303.538 377.371 C 301.387 376.536,295.019 374.064,289.385 371.878 C 283.752 369.691,277.048 367.142,274.488 366.214 C 258.999 360.597,256.137 353.277,268.116 349.916 C 284.304 345.374,285.779 337.661,283.107 271.508 C 281.060 220.812,280.521 183.239,281.743 176.380 C 283.250 167.923,288.361 162.940,296.115 162.366 C 306.485 161.598,305.563 157.250,292.206 143.942 C 277.776 129.563,268.810 124.914,259.886 127.182 M232.940 191.527 C 234.371 192.962,234.862 195.198,235.209 201.862 C 235.331 204.218,235.671 209.819,235.965 214.310 C 237.237 233.760,236.184 235.330,225.999 229.176 C 220.550 225.884,217.344 224.697,211.413 223.775 C 203.135 222.488,202.654 222.365,201.307 221.182 C 197.698 218.013,199.415 215.337,212.291 204.070 C 228.361 190.007,230.267 188.849,232.940 191.527 M213.521 249.300 C 223.308 251.837,235.672 260.759,238.002 266.966 C 239.284 270.383,240.049 294.449,239.088 301.117 C 236.094 321.877,231.734 324.487,212.305 317.148 C 194.628 310.471,194.779 310.632,194.382 298.138 C 193.174 260.040,193.433 252.331,195.999 249.972 C 198.408 247.759,206.393 247.453,213.521 249.300 " stroke="none" fill="#ffffff" fill-rule="evenodd"></path><path id="path1" d="M0.000 200.000 L 0.000 400.000 200.000 400.000 L 400.000 400.000 400.000 200.000 L 400.000 0.000 200.000 0.000 L 0.000 0.000 0.000 200.000 M214.501 10.501 C 216.585 11.503,240.292 34.833,241.377 36.950 C 242.790 39.706,242.084 41.617,238.848 43.791 C 234.610 46.638,232.366 48.502,226.927 53.691 C 210.581 69.286,210.052 69.259,192.683 51.963 C 176.531 35.880,176.371 35.432,185.127 30.877 C 187.767 29.504,189.291 28.220,196.553 21.257 C 209.492 8.851,210.194 8.430,214.501 10.501 M267.027 48.411 C 268.362 49.092,275.315 55.207,290.251 68.837 C 301.503 79.104,301.402 79.812,287.196 90.222 C 273.580 100.201,259.522 109.201,251.583 113.024 C 244.930 116.227,229.176 122.768,223.797 124.561 C 205.684 130.597,176.418 131.476,161.061 126.446 C 151.422 123.288,134.523 113.121,125.977 105.339 C 113.951 94.387,109.894 87.814,113.149 84.559 C 115.248 82.460,116.574 82.902,124.777 88.435 C 139.804 98.570,160.603 105.739,175.056 105.766 C 192.778 105.798,215.028 95.987,231.629 80.819 C 233.983 78.669,237.759 75.240,240.021 73.200 C 253.243 61.277,256.660 57.636,259.561 52.382 C 262.093 47.794,263.917 46.824,267.027 48.411 M270.765 127.883 C 276.514 129.883,282.887 134.656,292.206 143.942 C 305.563 157.250,306.485 161.598,296.115 162.366 C 288.361 162.940,283.250 167.923,281.743 176.380 C 280.521 183.239,281.060 220.812,283.107 271.508 C 285.779 337.661,284.304 345.374,268.116 349.916 C 256.137 353.277,258.999 360.597,274.488 366.214 C 277.048 367.142,283.752 369.691,289.385 371.878 C 295.019 374.064,301.387 376.536,303.538 377.371 C 309.463 379.671,311.567 382.300,309.661 385.022 C 307.243 388.474,304.359 387.960,272.363 378.379 C 220.388 362.816,209.285 356.839,205.597 342.438 C 203.871 335.699,201.390 332.192,196.915 330.167 C 191.089 327.531,188.451 328.733,182.759 336.621 C 172.416 350.953,163.388 356.182,146.620 357.552 C 130.366 358.880,122.690 355.346,96.462 334.457 C 72.634 315.481,66.794 308.277,65.556 296.337 C 64.548 286.623,66.696 279.364,73.015 271.120 C 74.657 268.978,76.652 266.291,77.449 265.149 C 82.299 258.193,82.551 258.282,100.745 273.365 C 122.008 290.992,121.730 290.448,114.355 300.002 C 106.200 310.565,104.884 314.940,107.972 321.213 C 112.502 330.415,122.000 329.882,132.896 319.816 C 147.194 306.606,152.679 298.798,154.271 289.385 C 154.998 285.084,154.934 263.116,154.190 261.672 C 152.109 257.635,150.165 258.299,141.698 265.943 C 130.631 275.934,131.711 276.140,112.902 260.447 C 99.625 249.370,98.223 247.931,98.186 245.334 C 98.145 242.389,98.867 241.573,116.222 224.930 C 139.322 202.777,138.676 206.252,122.764 189.717 C 109.973 176.426,108.020 173.787,108.011 169.790 C 108.003 166.011,109.440 165.306,117.877 164.953 C 126.055 164.611,128.027 164.132,136.819 160.354 C 150.440 154.501,158.826 153.343,170.950 155.641 C 185.272 158.357,188.656 157.174,197.297 146.430 C 203.168 139.132,203.912 139.294,217.505 150.852 C 231.751 162.966,233.059 163.096,235.527 152.651 C 237.481 144.380,241.437 138.547,248.907 132.917 C 256.799 126.970,263.622 125.399,270.765 127.883 M228.099 191.240 C 225.534 192.525,210.335 205.376,203.821 211.767 C 199.440 216.066,198.688 218.883,201.307 221.182 C 202.654 222.365,203.135 222.488,211.413 223.775 C 217.344 224.697,220.550 225.884,225.999 229.176 C 236.184 235.330,237.237 233.760,235.965 214.310 C 235.671 209.819,235.331 204.218,235.209 201.862 C 234.664 191.374,232.948 188.810,228.099 191.240 M198.564 248.575 C 193.258 250.314,192.973 253.697,194.382 298.138 C 194.779 310.632,194.628 310.471,212.305 317.148 C 231.734 324.487,236.094 321.877,239.088 301.117 C 240.049 294.449,239.284 270.383,238.002 266.966 C 235.672 260.759,223.308 251.837,213.521 249.300 C 208.940 248.113,201.129 247.734,198.564 248.575 " stroke="none" fill="#ff6328" fill-rule="evenodd"></path></g></svg>